<?xml version="1.0" encoding="utf-8"?>
<!-- Generator: Adobe Illustrator 19.1.0, SVG Export Plug-In . SVG Version: 6.00 Build 0)  -->
<svg version="1.1" id="Layer_1" xmlns="http://www.w3.org/2000/svg" xmlns:xlink="http://www.w3.org/1999/xlink" x="0px" y="0px"
	 width="343.8px" height="403.3px" viewBox="-117.3 -1.6 343.8 403.3" style="enable-background:new -117.3 -1.6 343.8 403.3;"
	 xml:space="preserve">
<style type="text/css">
	.st0{display:none;}
	.st1{display:inline;}
	.st2{fill:#9FBF3B;}
	.st3{fill:#FFFFFF;}
</style>
<g id="max_width__x2F__height" class="st0">
	<path class="st1" d="M304-49v498h-498V-49H304 M305-50h-500v500h500V-50L305-50z"/>
</g>
<g id="androd">
	<path class="st2" d="M106.3,33.3L126.5,4c1.2-1.7,0.9-4-0.7-5.1c-1.6-1.1-3.8-0.5-5,1.2l-21,30.4c-13.8-5.4-29.1-8.5-45.3-8.5
		s-31.5,3-45.3,8.5L-11.7,0.1c-1.2-1.7-3.4-2.3-5-1.2C-18.3,0-18.5,2.3-17.4,4L2.8,33.3c-32.1,14.9-54.5,43.3-57.4,76.3h218.3
		C160.9,76.6,138.4,48.2,106.3,33.3"/>
	<path class="st3" d="M9,79.4C2.3,79.4-3.1,74-3.1,67.4c0-6.7,5.4-12.1,12.1-12.1c6.7,0,12.1,5.4,12.1,12.1C21,74,15.6,79.4,9,79.4"
		/>
	<path class="st3" d="M100.2,79.4c-6.7,0-12.1-5.4-12.1-12.1c0-6.7,5.4-12.1,12.1-12.1c6.7,0,12.1,5.4,12.1,12.1
		C112.2,74,106.8,79.4,100.2,79.4"/>
	<path class="st2" d="M-68.6,247.6C-68.6,261-79.5,272-93,272l0,0c-13.4,0-24.4-10.9-24.4-24.4v-98.5c0-13.4,10.9-24.4,24.4-24.4
		l0,0c13.5,0,24.4,10.9,24.4,24.4C-68.6,149.1-68.6,247.6-68.6,247.6z"/>
	<path class="st2" d="M-54.6,125.5v177.9c0,10.6,8.6,19.1,19.1,19.1h22.6v54.7c0,13.5,10.9,24.4,24.4,24.4s24.4-10.9,24.4-24.4
		v-54.7h37.4v54.7c0,13.5,10.9,24.4,24.4,24.4s24.4-10.9,24.4-24.4v-54.7h22.6c10.6,0,19.1-8.6,19.1-19.1V125.5H-54.6z"/>
	<path class="st2" d="M177.7,247.6c0,13.5,10.9,24.4,24.4,24.4l0,0c13.5,0,24.4-10.9,24.4-24.4v-98.5c0-13.4-10.9-24.4-24.4-24.4
		l0,0c-13.5,0-24.4,10.9-24.4,24.4V247.6z"/>
</g>
</svg>
