<?xml version="1.0" encoding="utf-8"?>
<!-- Generator: Adobe Illustrator 19.1.0, SVG Export Plug-In . SVG Version: 6.00 Build 0)  -->
<svg version="1.1" id="Ebene_1" xmlns="http://www.w3.org/2000/svg" xmlns:xlink="http://www.w3.org/1999/xlink" x="0px" y="0px"
	 width="396.08px" height="486.33px" viewBox="-42.75 -43.42 396.08 486.33"
	 style="enable-background:new -42.75 -43.42 396.08 486.33;" xml:space="preserve">
<path style="fill:#999999;" d="M251.75-43.42c0,0-36.12,0.88-69.25,34s-27.54,77.75-27.54,77.75s32.79,6,67.79-29
	S251.75-43.42,251.75-43.42z"/>
<path style="fill:#999999;" d="M158.75,96.58c-24.42-0.17-39.42-21.25-81-21.25c-37.42,0-74.93,24.14-90.88,47.5
	c-15.88,23.25-29.62,48.75-29.62,100.5s24.92,140.75,86.19,201c10.49,10.32,24.38,18.07,40.23,18.55c28.5,0.86,46-20.47,82-20.47
	s46.83,20.47,79.33,20.47c14.78,0,31.63-6.73,48-24.14c21-22.33,47.06-64.87,60.33-105.67c0,0-66.47-25.67-65.67-99.67
	c0.67-61.33,52.75-91.5,52.75-91.5s-30.42-48.5-95.08-48.5C200.67,73.74,180.67,96.73,158.75,96.58z"/>
</svg>
