<?xml version="1.0" encoding="utf-8"?>
<!-- Generator: Adobe Illustrator 15.0.0, SVG Export Plug-In . SVG Version: 6.00 Build 0)  -->
<!DOCTYPE svg PUBLIC "-//W3C//DTD SVG 1.1//EN" "http://www.w3.org/Graphics/SVG/1.1/DTD/svg11.dtd">
<svg version="1.1" id="Layer_1" xmlns="http://www.w3.org/2000/svg" xmlns:xlink="http://www.w3.org/1999/xlink" x="0px" y="0px"
	 width="64px" height="64px" viewBox="0 0 64 64" enable-background="new 0 0 64 64" xml:space="preserve">
<g>
	<g>
		<path fill="#A3A3A3" d="M46,0H18c-3.3,0-6,2.7-6,6v52c0,3.3,2.7,6,6,6h28c3.3,0,6-2.7,6-6V6C52,2.7,49.3,0,46,0L46,0z M24,3h16v2
			H24V3z M32,60c-2.209,0-4-1.791-4-4s1.791-4,4-4s4,1.791,4,4S34.209,60,32,60L32,60z M48,48H16V8h32V48z M48,48"/>
	</g>
</g>
</svg>
